<?xml version="1.0" encoding="UTF-8"?>
<svg id="Layer_1" data-name="Layer 1" xmlns="http://www.w3.org/2000/svg" xmlns:xlink="http://www.w3.org/1999/xlink" viewBox="0 0 1901 501">
  <defs>
    <style>
      .cls-1, .cls-2, .cls-3, .cls-4 {
        fill: none;
      }

      .cls-5 {
        clip-path: url(#clippath);
      }

      .cls-6 {
        mask: url(#mask);
      }

      .cls-7 {
        fill: #02f795;
      }

      .cls-2 {
        stroke-width: 40px;
      }

      .cls-2, .cls-3, .cls-4 {
        stroke: #02f795;
      }

      .cls-3 {
        stroke-linejoin: round;
        stroke-width: 2px;
      }

      .cls-4 {
        stroke-miterlimit: 4;
        stroke-width: 40px;
      }

      .cls-8 {
        mask: url(#mask-3);
      }

      .cls-9 {
        mask: url(#mask-2);
      }

      .cls-10 {
        mask: url(#mask-4);
      }

      .cls-11 {
        mask: url(#mask-1);
      }
    </style>
    <clipPath id="clippath">
      <rect class="cls-1" width="1901" height="500"/>
    </clipPath>
    <mask id="mask" x="575.03" y="60.36" width="1307" height="371" maskUnits="userSpaceOnUse"/>
    <mask id="mask-1" x="575.03" y="60.36" width="1307" height="371" maskUnits="userSpaceOnUse"/>
    <mask id="mask-2" x="575.03" y="60.36" width="1307" height="371" maskUnits="userSpaceOnUse"/>
    <mask id="mask-3" x="575.03" y="60.36" width="1307" height="371" maskUnits="userSpaceOnUse"/>
    <mask id="mask-4" x="575.03" y="60.36" width="1307" height="371" maskUnits="userSpaceOnUse"/>
  </defs>
  <g class="cls-5">
    <g>
      <path class="cls-7" d="M640.3,265.2v159.8h-64.28V61.36h62.86V198.62h3.2c6.39-15.39,16.28-27.52,29.65-36.4,13.49-9,30.66-13.5,51.49-13.5,18.94,0,35.45,3.97,49.54,11.9,14.09,7.93,24.98,19.53,32.67,34.8,7.81,15.27,11.72,33.91,11.72,55.93v173.65h-64.28v-163.71c0-18.35-4.73-32.61-14.21-42.79-9.35-10.3-22.49-15.45-39.42-15.45-11.36,0-21.54,2.49-30.54,7.46-8.88,4.85-15.86,11.9-20.95,21.13-4.97,9.23-7.46,20.42-7.46,33.56Z"/>
      <path class="cls-7" d="M978.41,430.33c-27.34,0-50.96-5.68-70.85-17.05-19.77-11.48-34.98-27.7-45.63-48.65-10.65-21.07-15.98-45.87-15.98-74.4s5.33-52.68,15.98-73.86c10.77-21.31,25.8-37.88,45.1-49.72,19.29-11.96,41.96-17.93,68-17.93,16.81,0,32.67,2.72,47.59,8.17,15.03,5.33,28.29,13.61,39.77,24.86,11.6,11.25,20.71,25.57,27.34,42.97,6.63,17.28,9.95,37.88,9.95,61.79v19.71h-223.55v-43.32h161.93c-.11-12.31-2.78-23.26-7.99-32.85-5.2-9.71-12.48-17.34-21.84-22.9-9.23-5.56-20-8.35-32.31-8.35-13.14,0-24.68,3.2-34.62,9.59-9.94,6.27-17.7,14.56-23.26,24.86-5.44,10.18-8.23,21.37-8.34,33.56v37.82c0,15.86,2.9,29.48,8.7,40.84,5.8,11.25,13.91,19.89,24.33,25.92,10.42,5.92,22.61,8.88,36.58,8.88,9.35,0,17.82-1.3,25.39-3.91,7.58-2.72,14.15-6.69,19.71-11.9,5.57-5.21,9.77-11.66,12.61-19.35l60.01,6.75c-3.79,15.86-11.01,29.71-21.66,41.55-10.53,11.72-24.03,20.83-40.48,27.34-16.46,6.39-35.28,9.59-56.46,9.59Z"/>
      <path class="cls-7" d="M1175.75,152.27l55.04,100.67,55.93-100.67h68.01l-82.21,136.36,83.63,136.36h-67.65l-57.71-98.19-57.17,98.19h-68.18l83.09-136.36-80.96-136.36h68.18Z"/>
      <path class="cls-7" d="M1553.27,310.3V152.27h64.28V425h-62.33v-48.47h-2.84c-6.15,15.27-16.27,27.76-30.36,37.46-13.97,9.71-31.19,14.56-51.67,14.56-17.87,0-33.67-3.96-47.41-11.9-13.61-8.05-24.26-19.71-31.96-34.98-7.69-15.39-11.54-33.97-11.54-55.75V152.27h64.28v163.71c0,17.28,4.73,31.01,14.2,41.19,9.47,10.18,21.9,15.27,37.29,15.27,9.47,0,18.64-2.31,27.52-6.92,8.88-4.62,16.16-11.48,21.84-20.6,5.8-9.23,8.7-20.77,8.7-34.62Z"/>
      <path class="cls-7" d="M1874.2,224.36l-58.6,6.39c-1.65-5.92-4.55-11.48-8.7-16.69-4.02-5.21-9.47-9.41-16.33-12.61-6.87-3.2-15.27-4.79-25.22-4.79-13.37,0-24.62,2.9-33.73,8.7-9,5.8-13.44,13.32-13.32,22.55-.12,7.93,2.78,14.38,8.7,19.35,6.04,4.97,15.98,9.06,29.83,12.25l46.52,9.94c25.81,5.56,44.98,14.38,57.53,26.46,12.67,12.07,19.06,27.88,19.18,47.41-.12,17.16-5.15,32.32-15.1,45.45-9.82,13.02-23.49,23.2-41.01,30.54-17.52,7.34-37.64,11.01-60.37,11.01-33.38,0-60.25-6.98-80.61-20.95-20.36-14.09-32.5-33.68-36.4-58.77l62.68-6.04c2.84,12.31,8.87,21.6,18.11,27.88,9.23,6.27,21.24,9.41,36.04,9.41s27.52-3.14,36.76-9.41c9.35-6.27,14.02-14.03,14.02-23.26,0-7.81-3.02-14.26-9.05-19.35-5.92-5.09-15.15-9-27.7-11.72l-46.52-9.77c-26.16-5.45-45.52-14.62-58.06-27.52-12.55-13.02-18.76-29.48-18.65-49.36-.11-16.81,4.44-31.37,13.68-43.68,9.35-12.43,22.31-22.02,38.88-28.76,16.69-6.87,35.93-10.3,57.71-10.3,31.96,0,57.11,6.81,75.46,20.42,18.46,13.61,29.89,32.02,34.27,55.22Z"/>
      <g class="cls-6">
        <path class="cls-3" d="M640.3,265.2v159.8h-64.28V61.36h62.86V198.62h3.2c6.39-15.39,16.28-27.52,29.65-36.4,13.49-9,30.66-13.5,51.49-13.5,18.94,0,35.45,3.97,49.54,11.9,14.09,7.93,24.98,19.53,32.67,34.8,7.81,15.27,11.72,33.91,11.72,55.93v173.65h-64.28v-163.71c0-18.35-4.73-32.61-14.21-42.79-9.35-10.3-22.49-15.45-39.42-15.45-11.36,0-21.54,2.49-30.54,7.46-8.88,4.85-15.86,11.9-20.95,21.13-4.97,9.23-7.46,20.42-7.46,33.56Z"/>
      </g>
      <g class="cls-11">
        <path class="cls-3" d="M978.41,430.33c-27.34,0-50.96-5.68-70.85-17.05-19.77-11.48-34.98-27.7-45.63-48.65-10.65-21.07-15.98-45.87-15.98-74.4s5.33-52.68,15.98-73.86c10.77-21.31,25.8-37.88,45.1-49.72,19.29-11.96,41.96-17.93,68-17.93,16.81,0,32.67,2.72,47.59,8.17,15.03,5.33,28.29,13.61,39.77,24.86,11.6,11.25,20.71,25.57,27.34,42.97,6.63,17.28,9.95,37.88,9.95,61.79v19.71h-223.55v-43.32h161.93c-.11-12.31-2.78-23.26-7.99-32.85-5.2-9.71-12.48-17.34-21.84-22.9-9.23-5.56-20-8.35-32.31-8.35-13.14,0-24.68,3.2-34.62,9.59-9.94,6.27-17.7,14.56-23.26,24.86-5.44,10.18-8.23,21.37-8.34,33.56v37.82c0,15.86,2.9,29.48,8.7,40.84,5.8,11.25,13.91,19.89,24.33,25.92,10.42,5.92,22.61,8.88,36.58,8.88,9.35,0,17.82-1.3,25.39-3.91,7.58-2.72,14.15-6.69,19.71-11.9,5.57-5.21,9.77-11.66,12.61-19.35l60.01,6.75c-3.79,15.86-11.01,29.71-21.66,41.55-10.53,11.72-24.03,20.83-40.48,27.34-16.46,6.39-35.28,9.59-56.46,9.59Z"/>
      </g>
      <g class="cls-9">
        <path class="cls-3" d="M1175.75,152.27l55.04,100.67,55.93-100.67h68.01l-82.21,136.36,83.63,136.36h-67.65l-57.71-98.19-57.17,98.19h-68.18l83.09-136.36-80.96-136.36h68.18Z"/>
      </g>
      <g class="cls-8">
        <path class="cls-3" d="M1553.27,310.3V152.27h64.28V425h-62.33v-48.47h-2.84c-6.15,15.27-16.27,27.76-30.36,37.46-13.97,9.71-31.19,14.56-51.67,14.56-17.87,0-33.67-3.96-47.41-11.9-13.61-8.05-24.26-19.71-31.96-34.98-7.69-15.39-11.54-33.97-11.54-55.75V152.27h64.28v163.71c0,17.28,4.73,31.01,14.2,41.19,9.47,10.18,21.9,15.27,37.29,15.27,9.47,0,18.64-2.31,27.52-6.92,8.88-4.62,16.16-11.48,21.84-20.6,5.8-9.23,8.7-20.77,8.7-34.62Z"/>
      </g>
      <g class="cls-10">
        <path class="cls-3" d="M1874.2,224.36l-58.6,6.39c-1.65-5.92-4.55-11.48-8.7-16.69-4.02-5.21-9.47-9.41-16.33-12.61-6.87-3.2-15.27-4.79-25.22-4.79-13.37,0-24.62,2.9-33.73,8.7-9,5.8-13.44,13.32-13.32,22.55-.12,7.93,2.78,14.38,8.7,19.35,6.04,4.97,15.98,9.06,29.83,12.25l46.52,9.94c25.81,5.56,44.98,14.38,57.53,26.46,12.67,12.07,19.06,27.88,19.18,47.41-.12,17.16-5.15,32.32-15.1,45.45-9.82,13.02-23.49,23.2-41.01,30.54-17.52,7.34-37.64,11.01-60.37,11.01-33.38,0-60.25-6.98-80.61-20.95-20.36-14.09-32.5-33.68-36.4-58.77l62.68-6.04c2.84,12.31,8.87,21.6,18.11,27.88,9.23,6.27,21.24,9.41,36.04,9.41s27.52-3.14,36.76-9.41c9.35-6.27,14.02-14.03,14.02-23.26,0-7.81-3.02-14.26-9.05-19.35-5.92-5.09-15.15-9-27.7-11.72l-46.52-9.77c-26.16-5.45-45.52-14.62-58.06-27.52-12.55-13.02-18.76-29.48-18.65-49.36-.11-16.81,4.44-31.37,13.68-43.68,9.35-12.43,22.31-22.02,38.88-28.76,16.69-6.87,35.93-10.3,57.71-10.3,31.96,0,57.11,6.81,75.46,20.42,18.46,13.61,29.89,32.02,34.27,55.22Z"/>
      </g>
      <path class="cls-2" d="M250,21h0c44.18,0,80,35.82,80,80V401c0,44.18-35.82,80-80,80h0c-44.18,0-80-35.82-80-80V101c0-44.18,35.82-80,80-80Z"/>
      <path class="cls-4" d="M50.32,134.6h0c22.09-38.26,71.02-51.37,109.28-29.28L419.41,255.32c38.26,22.09,51.37,71.02,29.28,109.28h0c-22.09,38.26-71.02,51.37-109.28,29.28L79.6,243.88c-38.26-22.09-51.37-71.02-29.28-109.28Z"/>
      <rect class="cls-4" x="19.51" y="170.6" width="460" height="160" rx="80" ry="80" transform="translate(-91.87 158.33) rotate(-30)"/>
    </g>
  </g>
</svg>